<svg width="104" height="105" viewBox="0 0 104 105" fill="none" xmlns="http://www.w3.org/2000/svg">
<path d="M72.8313 54.0006C83.4667 54.0006 92.0883 45.296 92.0883 34.5584C92.0883 23.8207 83.4667 15.1161 72.8313 15.1161C62.1959 15.1161 53.5742 23.8207 53.5742 34.5584C53.5742 45.296 62.1959 54.0006 72.8313 54.0006Z" fill="#00C8FF"/>
<path d="M72.8313 65.0748C89.4979 65.0748 103.057 51.3852 103.057 34.5586C103.057 17.7317 89.4979 4.04212 72.8313 4.04212C56.1647 4.04212 42.6055 17.7317 42.6055 34.5586C42.6055 51.3852 56.1647 65.0748 72.8313 65.0748ZM72.8313 8.14368C87.2576 8.14368 98.9946 19.9933 98.9946 34.5586C98.9946 49.1236 87.2578 60.9732 72.8313 60.9732C58.4049 60.9732 46.668 49.1236 46.668 34.5586C46.668 19.9933 58.4047 8.14368 72.8313 8.14368Z" fill="black"/>
<path d="M69.42 39.6797C68.7161 38.7976 67.4377 38.6588 66.5638 39.3692C65.6902 40.0798 65.5527 41.3707 66.2563 42.2528C67.3761 43.6561 68.9814 44.4535 70.5804 44.8355C70.6655 45.889 71.5394 46.7171 72.6048 46.7171C73.6198 46.7171 74.4609 45.9655 74.6118 44.9834C77.4727 44.4678 79.4801 42.5448 79.8094 39.9268C80.1921 36.8857 78.2382 33.9693 75.0581 32.8343C74.9133 32.7827 74.7727 32.7322 74.636 32.6828V28.7318C74.8052 28.8407 74.9314 28.9596 75.0114 29.0744C75.6553 30.0016 76.9222 30.2262 77.8409 29.5752C78.7592 28.9247 78.9813 27.6457 78.3367 26.7185C77.598 25.6552 76.3077 24.753 74.6348 24.3814C74.5986 23.2808 73.7037 22.3998 72.6048 22.3998C71.4829 22.3998 70.5735 23.3179 70.5735 24.4505V24.5192C70.4488 24.5523 70.3233 24.5877 70.1969 24.6263C68.0645 25.275 66.4554 27.36 66.2837 29.6971C66.1131 32.0196 67.3306 34.0341 69.5404 35.0861C69.7813 35.2009 70.1333 35.3511 70.5733 35.528V40.5274C70.1075 40.3158 69.7029 40.0342 69.42 39.6797ZM75.7792 39.41C75.7036 40.0106 75.3008 40.4694 74.636 40.7413V37.1789C75.5283 37.8118 75.8676 38.7086 75.7792 39.41ZM70.3354 30.0004C70.3547 29.7358 70.4417 29.4737 70.5737 29.2449V30.8486C70.3899 30.608 70.3113 30.3267 70.3354 30.0004Z" fill="white"/>
<path d="M103.992 73.7967C103.885 71.3073 102.741 69.1667 100.772 67.7695C97.5268 65.4667 93.1466 65.8666 90.3563 68.72C90.2669 68.8115 90.1861 68.9112 90.1152 69.018L85.659 75.721C84.4114 72.748 81.5128 70.6595 78.1452 70.6595L46.0856 70.6377H46.0842C45.5979 70.6377 45.1281 70.8137 44.7596 71.1338L36.728 78.1099H30.8669V76.3075C30.8669 75.1749 29.9573 74.2567 28.8356 74.2567H19.892V73.9762C19.892 72.8435 18.9824 71.9254 17.8608 71.9254H2.03125C0.909391 71.9254 0 72.8435 0 73.9762V98.0273C0 99.16 0.909391 100.078 2.03125 100.078H17.8608C18.9824 100.078 19.892 99.16 19.892 98.0273V97.7468H28.8354C29.9571 97.7468 30.8667 96.8286 30.8667 95.696V93.8023H37.6017L43.6861 100.314C44.0702 100.725 44.6048 100.958 45.1636 100.958C45.1732 100.958 45.1827 100.958 45.1923 100.957L87.1404 100.363C87.7949 100.354 88.4049 100.027 88.7788 99.4848L102.107 80.1615C102.115 80.1494 102.124 80.1371 102.132 80.125C103.422 78.1655 104.083 75.9181 103.992 73.7967ZM15.8295 95.9766H4.0625V76.027H15.8295V95.9766ZM26.8042 93.6454H19.892V78.3583H26.8042V93.6454ZM98.7604 77.8364L86.0409 96.2772L46.0285 96.8438L39.9559 90.3445C39.572 89.9337 39.0376 89.701 38.4784 89.701H30.8669V82.2115H37.4816C37.9679 82.2115 38.4378 82.0355 38.8062 81.7154L46.8372 74.7399L78.1438 74.7612C80.4081 74.7612 82.2502 76.6553 82.2502 78.9836C82.2502 81.3116 80.4082 83.2055 78.1438 83.2055C78.1385 83.2055 78.1332 83.2057 78.128 83.2057H60.6105C60.0531 83.2057 59.5201 83.437 59.1364 83.8456L54.863 88.3962C54.0912 89.2182 54.1255 90.5161 54.9396 91.2954C55.3325 91.6714 55.835 91.858 56.3367 91.858C56.8748 91.858 57.4119 91.6435 57.8112 91.2181L61.4837 87.3073L81.7651 87.3081H81.7657C82.4426 87.3081 83.0751 86.9677 83.4523 86.4002L93.3713 71.4806C94.7653 70.1689 96.8681 70.0122 98.4362 71.1254C100.553 72.6272 100.202 75.6342 98.7604 77.8364Z" fill="black"/>
</svg>
